<svg width="78" height="78" viewBox="0 0 78 78" fill="none" xmlns="http://www.w3.org/2000/svg">
<path d="M51.051 25.051C51.3532 24.7488 51.5929 24.3901 51.7564 23.9953C51.9199 23.6005 52.0041 23.1773 52.0041 22.75C52.0041 22.3227 51.9199 21.8995 51.7564 21.5047C51.5929 21.1099 51.3532 20.7512 51.051 20.449C50.7488 20.1468 50.3901 19.9071 49.9953 19.7436C49.6005 19.5801 49.1773 19.4959 48.75 19.4959C48.3227 19.4959 47.8995 19.5801 47.5047 19.7436C47.1099 19.9071 46.7512 20.1468 46.449 20.449L29.25 37.6545L21.801 30.199C21.4988 29.8968 21.1401 29.6571 20.7453 29.4936C20.3505 29.3301 19.9273 29.2459 19.5 29.2459C19.0727 29.2459 18.6495 29.3301 18.2547 29.4936C17.8599 29.6571 17.5012 29.8968 17.199 30.199C16.8968 30.5012 16.6571 30.8599 16.4936 31.2547C16.3301 31.6495 16.2459 32.0727 16.2459 32.5C16.2459 32.9273 16.3301 33.3505 16.4936 33.7453C16.6571 34.1401 16.8968 34.4988 17.199 34.801L26.949 44.551C27.2509 44.8537 27.6095 45.0938 28.0044 45.2576C28.3992 45.4215 28.8225 45.5058 29.25 45.5058C29.6775 45.5058 30.1008 45.4215 30.4956 45.2576C30.8905 45.0938 31.2491 44.8537 31.551 44.551L51.051 25.051ZM0 16.25C0 11.9402 1.71205 7.80698 4.75951 4.75951C7.80698 1.71205 11.9402 0 16.25 0H48.75C50.884 0 52.9971 0.420319 54.9686 1.23696C56.9401 2.0536 58.7315 3.25056 60.2405 4.75951C61.7494 6.26847 62.9464 8.05985 63.763 10.0314C64.5797 12.0029 65 14.116 65 16.25V48.75C65 50.884 64.5797 52.9971 63.763 54.9686C62.9464 56.9401 61.7494 58.7315 60.2405 60.2405C58.7315 61.7494 56.9401 62.9464 54.9686 63.763C52.9971 64.5797 50.884 65 48.75 65H16.25C11.9402 65 7.80698 63.288 4.75951 60.2405C1.71205 57.193 0 53.0598 0 48.75V16.25ZM16.25 6.5C13.6641 6.5 11.1842 7.52723 9.35571 9.35571C7.52723 11.1842 6.5 13.6641 6.5 16.25V48.75C6.5 51.3359 7.52723 53.8158 9.35571 55.6443C11.1842 57.4728 13.6641 58.5 16.25 58.5H48.75C51.3359 58.5 53.8158 57.4728 55.6443 55.6443C57.4728 53.8158 58.5 51.3359 58.5 48.75V16.25C58.5 13.6641 57.4728 11.1842 55.6443 9.35571C53.8158 7.52723 51.3359 6.5 48.75 6.5H16.25ZM32.5 78C29.9773 78 27.4892 77.4126 25.2328 76.2844C22.9764 75.1562 21.0136 73.5182 19.5 71.5H48.75C54.7837 71.5 60.5702 69.1031 64.8367 64.8367C69.1031 60.5702 71.5 54.7837 71.5 48.75V13C75.4455 15.964 78 20.683 78 26V48.75C78 56.5076 74.9183 63.9474 69.4329 69.4329C63.9474 74.9183 56.5076 78 48.75 78H32.5Z" fill="#4629FA"/>
</svg>
