<svg width="481" height="360" viewBox="0 0 481 360" fill="none" xmlns="http://www.w3.org/2000/svg">
<path d="M381.664 208.825C326.052 280.005 245.269 327.158 155.942 340.578C66.616 353.999 -24.4565 332.665 -98.5296 280.969C-172.603 229.273 -224.04 151.148 -242.253 62.674C-260.467 -25.7996 -244.071 -117.889 -196.441 -194.64C-148.811 -271.391 -73.57 -326.962 13.7938 -349.916C101.158 -372.87 193.997 -361.46 273.202 -318.034C352.408 -274.608 411.952 -202.471 439.58 -116.47C467.207 -30.4701 460.816 62.849 421.72 144.279L340.98 105.515C370.156 44.7454 374.926 -24.8968 354.309 -89.077C333.691 -153.257 289.254 -207.092 230.144 -239.5C171.035 -271.908 101.751 -280.423 36.5532 -263.293C-28.6447 -246.163 -84.7951 -204.691 -120.341 -147.413C-155.886 -90.1359 -168.122 -21.4113 -154.53 44.6147C-140.937 110.641 -102.551 168.944 -47.2715 207.524C8.0077 246.104 75.9733 262.025 142.636 252.009C209.298 241.994 269.585 206.804 311.087 153.684L381.664 208.825Z" fill="#745EFB" fill-opacity="0.27"/>
<path d="M405.664 223.825C350.052 295.005 269.269 342.158 179.942 355.578C90.616 368.999 -0.456513 347.665 -74.5296 295.969C-148.603 244.273 -200.04 166.148 -218.253 77.674C-236.467 -10.7996 -220.071 -102.889 -172.441 -179.64C-124.811 -256.391 -49.57 -311.962 37.7938 -334.916C125.158 -357.87 217.997 -346.46 297.202 -303.034C376.408 -259.608 435.952 -187.471 463.58 -101.47C491.207 -15.4701 484.816 77.849 445.72 159.279L364.98 120.515C394.156 59.7454 398.926 -9.8968 378.309 -74.077C357.691 -138.257 313.254 -192.092 254.144 -224.5C195.035 -256.908 125.751 -265.423 60.5532 -248.293C-4.6447 -231.163 -60.7951 -189.691 -96.3407 -132.413C-131.886 -75.1359 -144.122 -6.41133 -130.53 59.6147C-116.937 125.641 -78.5507 183.944 -23.2715 222.524C32.0077 261.104 99.9733 277.025 166.636 267.009C233.298 256.994 293.585 221.804 335.087 168.684L405.664 223.825Z" fill="#745EFB" fill-opacity="0.27"/>
</svg>
