<svg width="10" height="10" viewBox="0 0 10 10" fill="none" xmlns="http://www.w3.org/2000/svg">
<path d="M5.00004 0.850098C2.70837 0.850098 0.833374 2.72093 0.833374 5.0251C0.833374 7.10843 2.35837 8.8376 4.35004 9.1501V6.23343H3.29171V5.0251H4.35004V4.10426C4.35004 3.05843 4.97087 2.48343 5.92504 2.48343C6.37921 2.48343 6.85421 2.5626 6.85421 2.5626V3.59176H6.32921C5.81254 3.59176 5.65004 3.9126 5.65004 4.24176V5.0251H6.80837L6.62087 6.23343H5.65004V9.1501C6.63189 8.99503 7.52596 8.49406 8.17085 7.73762C8.81573 6.98118 9.16894 6.01912 9.16671 5.0251C9.16671 2.72093 7.29171 0.850098 5.00004 0.850098Z" fill="white"/>
</svg>
