
<svg width="487" height="459" viewBox="0 0 487 459" fill="none" xmlns="http://www.w3.org/2000/svg">
<circle cx="229.5" cy="229.5" r="229" stroke="#745EFB"/>
<circle cx="257.5" cy="229.5" r="229" stroke="#745EFB"/>
<circle cx="229.5" cy="229.5" r="169" stroke="#745EFB"/>
<circle cx="257.5" cy="229.5" r="169" stroke="#745EFB"/>
<circle cx="229.5" cy="229.5" r="106" stroke="#745EFB"/>
<circle cx="257.5" cy="229.5" r="106" stroke="#745EFB"/>
<path d="M133.88 229.56C133.88 227.827 134.2 226.133 134.84 224.48C135.507 222.8 136.467 221.28 137.72 219.92C138.973 218.56 140.493 217.48 142.28 216.68C144.093 215.853 146.133 215.44 148.4 215.44C151.12 215.44 153.493 216.013 155.52 217.16C157.547 218.28 159.053 219.773 160.04 221.64L154.08 225.88C153.733 224.947 153.227 224.227 152.56 223.72C151.92 223.213 151.213 222.867 150.44 222.68C149.693 222.467 148.96 222.36 148.24 222.36C147.12 222.36 146.147 222.587 145.32 223.04C144.52 223.467 143.853 224.04 143.32 224.76C142.813 225.48 142.427 226.28 142.16 227.16C141.92 228.04 141.8 228.92 141.8 229.8C141.8 230.787 141.947 231.733 142.24 232.64C142.533 233.547 142.96 234.36 143.52 235.08C144.08 235.773 144.76 236.32 145.56 236.72C146.387 237.12 147.307 237.32 148.32 237.32C149.04 237.32 149.773 237.213 150.52 237C151.267 236.76 151.947 236.387 152.56 235.88C153.173 235.373 153.64 234.693 153.96 233.84L160.32 237.64C159.76 239.027 158.827 240.213 157.52 241.2C156.213 242.187 154.733 242.947 153.08 243.48C151.427 243.987 149.787 244.24 148.16 244.24C146.053 244.24 144.12 243.827 142.36 243C140.627 242.147 139.12 241.027 137.84 239.64C136.587 238.227 135.613 236.653 134.92 234.92C134.227 233.16 133.88 231.373 133.88 229.56ZM175.467 244.24C173.307 244.24 171.347 243.84 169.587 243.04C167.827 242.213 166.307 241.12 165.027 239.76C163.773 238.373 162.8 236.827 162.107 235.12C161.44 233.387 161.107 231.6 161.107 229.76C161.107 227.867 161.467 226.067 162.187 224.36C162.907 222.653 163.907 221.133 165.187 219.8C166.493 218.44 168.027 217.373 169.787 216.6C171.573 215.827 173.52 215.44 175.627 215.44C177.787 215.44 179.747 215.853 181.507 216.68C183.267 217.48 184.773 218.573 186.027 219.96C187.28 221.347 188.24 222.907 188.907 224.64C189.6 226.347 189.947 228.107 189.947 229.92C189.947 231.787 189.587 233.573 188.867 235.28C188.173 236.987 187.173 238.52 185.867 239.88C184.587 241.213 183.067 242.28 181.307 243.08C179.547 243.853 177.6 244.24 175.467 244.24ZM169.027 229.84C169.027 230.8 169.16 231.733 169.427 232.64C169.693 233.52 170.093 234.32 170.627 235.04C171.16 235.733 171.827 236.293 172.627 236.72C173.453 237.12 174.427 237.32 175.547 237.32C176.667 237.32 177.64 237.107 178.467 236.68C179.293 236.253 179.96 235.68 180.467 234.96C181 234.213 181.387 233.4 181.627 232.52C181.893 231.613 182.027 230.693 182.027 229.76C182.027 228.8 181.893 227.88 181.627 227C181.36 226.12 180.96 225.333 180.427 224.64C179.893 223.92 179.213 223.36 178.387 222.96C177.56 222.56 176.6 222.36 175.507 222.36C174.387 222.36 173.413 222.573 172.587 223C171.787 223.427 171.12 224 170.587 224.72C170.053 225.413 169.653 226.213 169.387 227.12C169.147 228 169.027 228.907 169.027 229.84ZM193.253 244V215.6H201.053V244H193.253ZM213.748 230.04V244H205.948V215.6H212.028L223.428 230.04V215.6H231.228V244H225.028L213.748 230.04ZM253.304 224.88C253.304 224.88 253.077 224.747 252.624 224.48C252.171 224.213 251.571 223.92 250.824 223.6C250.077 223.253 249.264 222.947 248.384 222.68C247.504 222.413 246.637 222.28 245.784 222.28C245.117 222.28 244.571 222.387 244.144 222.6C243.717 222.813 243.504 223.173 243.504 223.68C243.504 224.16 243.717 224.547 244.144 224.84C244.571 225.133 245.171 225.4 245.944 225.64C246.744 225.88 247.691 226.173 248.784 226.52C250.544 227.053 252.064 227.667 253.344 228.36C254.624 229.053 255.611 229.947 256.304 231.04C256.997 232.107 257.344 233.533 257.344 235.32C257.344 237.027 257.037 238.467 256.424 239.64C255.811 240.787 254.984 241.707 253.944 242.4C252.904 243.093 251.744 243.6 250.464 243.92C249.184 244.213 247.877 244.36 246.544 244.36C245.184 244.36 243.757 244.227 242.264 243.96C240.797 243.667 239.371 243.28 237.984 242.8C236.597 242.293 235.331 241.707 234.184 241.04L237.544 234.2C237.544 234.2 237.811 234.36 238.344 234.68C238.877 235 239.584 235.36 240.464 235.76C241.344 236.16 242.317 236.52 243.384 236.84C244.477 237.16 245.571 237.32 246.664 237.32C247.517 237.32 248.104 237.213 248.424 237C248.771 236.76 248.944 236.453 248.944 236.08C248.944 235.52 248.651 235.093 248.064 234.8C247.477 234.48 246.704 234.187 245.744 233.92C244.811 233.627 243.771 233.293 242.624 232.92C240.971 232.36 239.611 231.733 238.544 231.04C237.477 230.32 236.691 229.48 236.184 228.52C235.677 227.533 235.424 226.347 235.424 224.96C235.424 222.853 235.917 221.093 236.904 219.68C237.891 218.267 239.184 217.2 240.784 216.48C242.411 215.733 244.157 215.36 246.024 215.36C247.411 215.36 248.744 215.533 250.024 215.88C251.331 216.2 252.544 216.6 253.664 217.08C254.811 217.56 255.811 218.013 256.664 218.44L253.304 224.88ZM269.126 215.6H276.286L278.886 224.36L281.526 215.6H288.686L283.886 229.16L285.926 234.96L292.046 215.6H300.526L289.806 244H283.046L278.886 233.84L274.766 244H268.006L257.286 215.6H265.726L271.886 234.96L273.846 229.16L269.126 215.6ZM306.688 215.6H315.408L324.448 244H316.528L314.808 238.44H307.248L305.568 244H297.607L306.688 215.6ZM313.568 233.24L311.048 223.24L308.408 233.24H313.568ZM337.915 244.2C336.075 244.2 334.315 243.88 332.635 243.24C330.982 242.573 329.515 241.613 328.235 240.36C326.955 239.08 325.942 237.547 325.195 235.76C324.475 233.947 324.115 231.88 324.115 229.56C324.115 227.56 324.489 225.707 325.235 224C325.982 222.293 327.009 220.8 328.315 219.52C329.649 218.213 331.195 217.2 332.955 216.48C334.715 215.76 336.622 215.4 338.675 215.4C341.235 215.4 343.555 215.96 345.635 217.08C347.715 218.173 349.262 219.68 350.275 221.6L344.475 226.04C343.915 224.92 343.075 224.027 341.955 223.36C340.835 222.667 339.649 222.32 338.395 222.32C337.462 222.32 336.609 222.507 335.835 222.88C335.062 223.253 334.382 223.773 333.795 224.44C333.235 225.107 332.795 225.907 332.475 226.84C332.182 227.747 332.035 228.747 332.035 229.84C332.035 230.96 332.195 231.973 332.515 232.88C332.835 233.787 333.275 234.573 333.835 235.24C334.422 235.88 335.115 236.387 335.915 236.76C336.715 237.107 337.609 237.28 338.595 237.28C339.849 237.28 341.049 236.973 342.195 236.36C343.342 235.72 344.382 234.827 345.315 233.68V241.28C343.182 243.227 340.715 244.2 337.915 244.2ZM344.915 234.48H339.675V228.88H351.355V244H344.915V234.48Z" fill="#4629FA"/>
<g clip-path="url(#clip0_0_1)">
<path d="M175.585 239.843C170.062 239.843 165.585 235.725 165.585 230.645C165.585 225.564 170.062 221.446 175.585 221.446C181.108 221.446 185.585 225.564 185.585 230.645C185.585 235.725 181.108 239.843 175.585 239.843ZM175.585 226.742L171.342 230.645L175.585 234.547L179.827 230.645L175.585 226.742Z" fill="#D9D4FE"/>
</g>
<g clip-path="url(#clip1_0_1)">
<path d="M249.016 328.168H245.943V334.224H250.775V336.76H245.943V342.815H249.166C249.994 342.815 255.964 342.909 255.955 335.769C255.946 328.629 250.164 328.168 249.016 328.168ZM248.5 314C236.627 314 227 323.627 227 335.5C227 347.373 236.627 357 248.5 357C260.373 357 270 347.373 270 335.5C270 323.627 260.373 314 248.5 314ZM249.346 347.112H241.559V336.76H238.814V334.224H241.559V323.874H248.242C249.822 323.874 260.295 323.546 260.295 335.688C260.293 348.029 249.346 347.112 249.346 347.112Z" fill="#4629FA"/>
</g>
<path d="M33 246.167C43.5857 246.167 52.1666 237.586 52.1666 227C52.1666 216.414 43.5857 207.833 33 207.833C22.4142 207.833 13.8333 216.414 13.8333 227C13.8333 237.586 22.4142 246.167 33 246.167ZM42.0198 224.248C41.6863 226.266 40.6302 227.251 39.2004 227.6C41.1017 228.664 42.0179 230.279 41.0385 233.114C39.8214 236.668 37.0959 236.99 33.4868 236.302L32.5553 240.053L30.4585 239.533L31.3881 235.782C31.1504 235.72 30.9121 235.661 30.6731 235.608C30.3435 235.531 30.0023 235.453 29.665 235.355L28.7354 239.106L26.6424 238.588L27.572 234.835L23.4013 233.701L24.4363 231.048C24.4363 231.048 26.0118 231.481 25.9888 231.454C26.5715 231.596 26.8571 231.186 26.974 230.902L28.4613 224.89L29.5461 220.616C29.5921 220.154 29.4465 219.548 28.5936 219.318C28.6511 219.285 27.0602 218.939 27.0602 218.939L27.6793 216.424L31.9784 217.49L32.8888 213.815L35.0546 214.352L34.1442 218.026C34.702 218.149 35.2444 218.295 35.8041 218.438L36.7126 214.764L38.8209 215.285L37.8856 219.055C40.544 220.033 42.4587 221.476 42.0198 224.248ZM32.2448 224.995C33.5041 225.375 37.2377 226.496 37.8664 223.999C38.4529 221.622 35.2176 220.897 33.7149 220.56C33.536 220.522 33.3859 220.487 33.2645 220.455L32.1394 224.965L32.2448 224.995ZM30.3013 232.317L30.4834 232.372C32.0359 232.832 36.4366 234.142 37.0346 231.663C37.6479 229.275 33.6919 228.346 31.919 227.928C31.7235 227.883 31.5586 227.843 31.4245 227.809L30.3013 232.317Z" fill="#4629FA"/>
<path d="M250.908 128.691L236.917 137.769L222.917 128.691L236.917 103.167L250.908 128.691ZM236.917 140.687L222.917 131.609L236.917 153.272L250.917 131.606L236.917 140.687Z" fill="#4629FA"/>
<defs>
<clipPath id="clip0_0_1">
<rect width="24" height="22.0767" fill="white" transform="translate(160.905 217.878)"/>
</clipPath>
<clipPath id="clip1_0_1">
<rect width="43" height="43" fill="white" transform="translate(227 314)"/>
</clipPath>
</defs>
</svg>
