<svg width="487" height="480" viewBox="0 0 487 480" fill="none" xmlns="http://www.w3.org/2000/svg">
<circle cx="229.5" cy="250.5" r="229" stroke="#745EFB"/>
<circle cx="257.5" cy="250.5" r="229" stroke="#745EFB"/>
<circle cx="229.5" cy="250.5" r="169" stroke="#745EFB"/>
<circle cx="257.5" cy="250.5" r="169" stroke="#745EFB"/>
<circle cx="229.5" cy="250.5" r="106" stroke="#745EFB"/>
<circle cx="257.5" cy="250.5" r="106" stroke="#745EFB"/>
<g clip-path="url(#clip0_0_1)">
<path d="M228 0C216.401 0 207 9.40144 207 21C207 32.5986 216.401 42 228 42C239.599 42 249 32.5986 249 21C249 9.40144 239.599 0 228 0ZM221.469 8.77472C221.879 8.70689 222.299 8.77633 222.665 8.97225L228.526 12.3792C228.795 12.5199 229.02 12.7335 229.175 12.9957C229.329 13.2579 229.407 13.5581 229.4 13.8623V16.1575L226.667 17.7867V15.4186C226.657 15.1161 226.57 14.8211 226.415 14.5615C226.259 14.3019 226.04 14.0863 225.778 13.9351L222.592 12.157C222.319 12.0107 222.014 11.9341 221.704 11.9341C221.393 11.9341 221.088 12.0107 220.815 12.157L217.63 13.9348C217.357 14.0738 217.129 14.2865 216.972 14.5487C216.815 14.811 216.734 15.1122 216.74 15.4179V19.1175C216.75 19.42 216.837 19.7151 216.992 19.9746C217.148 20.2342 217.367 20.4498 217.629 20.601L220.815 22.4546C221.088 22.6004 221.394 22.6767 221.704 22.6767C222.014 22.6767 222.319 22.6004 222.592 22.4546L226.6 20.0832L229.4 18.5273L233.408 16.1572C233.681 16.0114 233.986 15.9351 234.296 15.9351C234.606 15.9351 234.912 16.0114 235.185 16.1572L241.111 19.5622C241.383 19.7007 241.611 19.9132 241.769 20.1752C241.926 20.4373 242.006 20.7384 242 21.044V27.9346C241.991 28.2358 241.905 28.5297 241.751 28.7886C241.596 29.0475 241.379 29.263 241.118 29.4148L235.193 32.8223C234.919 32.9687 234.614 33.0452 234.304 33.0452C233.993 33.0452 233.688 32.9687 233.414 32.8223L227.488 29.4164C227.216 29.2773 226.989 29.0645 226.832 28.8022C226.675 28.54 226.594 28.2389 226.6 27.9333V25.5642L229.26 24.0096V26.3885C229.27 26.6906 229.357 26.9851 229.513 27.2443C229.668 27.5034 229.887 27.7187 230.149 27.8696L233.335 29.6474C233.608 29.7938 233.913 29.8704 234.224 29.8704C234.534 29.8704 234.839 29.7938 235.112 29.6474L238.298 27.7968C238.569 27.6578 238.797 27.4453 238.954 27.1834C239.111 26.9216 239.191 26.6209 239.186 26.3156V22.6856C239.176 22.3832 239.089 22.0883 238.934 21.8288C238.779 21.5693 238.56 21.3537 238.298 21.2025L235.112 19.425C234.839 19.2792 234.534 19.2029 234.224 19.2029C233.914 19.2029 233.608 19.2792 233.335 19.425L229.341 21.7143L226.6 23.3435L222.592 25.6403C222.319 25.7862 222.014 25.8624 221.704 25.8624C221.394 25.8624 221.088 25.7862 220.815 25.6403L214.889 22.2252C214.618 22.0869 214.391 21.8754 214.234 21.6146C214.076 21.3539 213.995 21.0544 214 20.75V13.862C213.984 13.545 214.069 13.2313 214.242 12.9651C214.414 12.6989 214.667 12.4938 214.962 12.3788L220.888 8.97225C221.069 8.87482 221.266 8.80808 221.469 8.77472Z" fill="#4629FA"/>
</g>
<g clip-path="url(#clip1_0_1)">
<path d="M249.016 349.168H245.943V355.224H250.775V357.76H245.943V363.815H249.166C249.994 363.815 255.964 363.909 255.955 356.769C255.946 349.629 250.164 349.168 249.016 349.168ZM248.5 335C236.627 335 227 344.627 227 356.5C227 368.373 236.627 378 248.5 378C260.373 378 270 368.373 270 356.5C270 344.627 260.373 335 248.5 335ZM249.346 368.112H241.559V357.76H238.814V355.224H241.559V344.874H248.242C249.822 344.874 260.295 344.546 260.295 356.688C260.293 369.029 249.346 368.112 249.346 368.112Z" fill="#4629FA"/>
</g>
<path d="M467.257 240.067C467.257 241.119 463.527 241.998 458.527 242.22L458.53 242.222C457.698 242.268 456.864 242.286 456.03 242.278C454.732 242.278 453.813 242.239 453.49 242.224C448.48 242 444.74 241.12 444.74 240.067C444.74 239.014 448.48 238.133 453.49 237.907V241.346C453.817 241.371 454.755 241.426 456.052 241.426C457.607 241.426 458.385 241.359 458.527 241.347V237.911C463.527 238.134 467.257 239.016 467.257 240.067ZM475.907 240.986L456.207 260.038C456.151 260.092 456.076 260.122 455.999 260.122C455.922 260.122 455.848 260.092 455.792 260.038L436.093 240.986C436.047 240.942 436.016 240.884 436.005 240.821C435.994 240.758 436.002 240.693 436.029 240.636L443.323 225.173C443.347 225.121 443.386 225.078 443.434 225.047C443.482 225.016 443.538 225 443.595 225H468.409C468.465 225.001 468.519 225.018 468.567 225.048C468.614 225.079 468.651 225.122 468.675 225.173L475.971 240.636C475.998 240.693 476.006 240.758 475.995 240.821C475.984 240.884 475.953 240.942 475.907 240.986ZM468.444 240.306C468.444 238.95 464.19 237.816 458.532 237.552V234.477H465.509V229.784H446.513V234.477H453.488V237.554C447.818 237.816 443.555 238.95 443.555 240.308C443.555 241.667 447.818 242.797 453.488 243.063V252.924H458.53V243.06C464.187 242.796 468.444 241.664 468.444 240.306Z" fill="#4629FA"/>
<path d="M33 267.167C43.5857 267.167 52.1666 258.586 52.1666 248C52.1666 237.414 43.5857 228.833 33 228.833C22.4142 228.833 13.8333 237.414 13.8333 248C13.8333 258.586 22.4142 267.167 33 267.167ZM42.0198 245.248C41.6863 247.266 40.6302 248.251 39.2004 248.6C41.1017 249.664 42.0179 251.279 41.0385 254.114C39.8214 257.668 37.0959 257.99 33.4868 257.302L32.5553 261.053L30.4585 260.533L31.3881 256.782C31.1504 256.72 30.9121 256.661 30.6731 256.608C30.3435 256.531 30.0023 256.453 29.665 256.355L28.7354 260.106L26.6424 259.588L27.572 255.835L23.4013 254.701L24.4363 252.048C24.4363 252.048 26.0118 252.481 25.9888 252.454C26.5715 252.596 26.8571 252.186 26.974 251.902L28.4613 245.89L29.5461 241.616C29.5921 241.154 29.4465 240.548 28.5936 240.318C28.6511 240.285 27.0602 239.939 27.0602 239.939L27.6793 237.424L31.9784 238.49L32.8888 234.815L35.0546 235.352L34.1442 239.026C34.702 239.149 35.2444 239.295 35.8041 239.438L36.7126 235.764L38.8209 236.285L37.8856 240.055C40.544 241.033 42.4587 242.476 42.0198 245.248ZM32.2448 245.995C33.5041 246.375 37.2377 247.496 37.8664 244.999C38.4529 242.622 35.2176 241.897 33.7149 241.56C33.536 241.522 33.3859 241.487 33.2645 241.455L32.1394 245.965L32.2448 245.995ZM30.3013 253.317L30.4834 253.372C32.0359 253.832 36.4366 255.142 37.0346 252.663C37.6479 250.275 33.6919 249.346 31.919 248.928C31.7235 248.883 31.5586 248.843 31.4245 248.809L30.3013 253.317Z" fill="#4629FA"/>
<path d="M250.908 149.691L236.917 158.769L222.917 149.691L236.917 124.167L250.908 149.691ZM236.917 161.687L222.917 152.609L236.917 174.272L250.917 152.606L236.917 161.687Z" fill="#4629FA"/>
<defs>
<clipPath id="clip0_0_1">
<rect width="42" height="42" fill="white" transform="translate(207)"/>
</clipPath>
<clipPath id="clip1_0_1">
<rect width="43" height="43" fill="white" transform="translate(227 335)"/>
</clipPath>
</defs>
</svg>
