<svg width="219" height="30" viewBox="0 0 219 30" fill="none" xmlns="http://www.w3.org/2000/svg">
<path d="M0.88 14.56C0.88 12.8267 1.2 11.1333 1.84 9.48C2.50667 7.8 3.46667 6.28 4.72 4.92C5.97333 3.56 7.49333 2.48 9.28 1.68C11.0933 0.853332 13.1333 0.439998 15.4 0.439998C18.12 0.439998 20.4933 1.01333 22.52 2.16C24.5467 3.28 26.0533 4.77333 27.04 6.64L21.08 10.88C20.7333 9.94667 20.2267 9.22667 19.56 8.72C18.92 8.21333 18.2133 7.86667 17.44 7.68C16.6933 7.46667 15.96 7.36 15.24 7.36C14.12 7.36 13.1467 7.58667 12.32 8.04C11.52 8.46667 10.8533 9.04 10.32 9.76C9.81333 10.48 9.42667 11.28 9.16 12.16C8.92 13.04 8.8 13.92 8.8 14.8C8.8 15.7867 8.94667 16.7333 9.24 17.64C9.53333 18.5467 9.96 19.36 10.52 20.08C11.08 20.7733 11.76 21.32 12.56 21.72C13.3867 22.12 14.3067 22.32 15.32 22.32C16.04 22.32 16.7733 22.2133 17.52 22C18.2667 21.76 18.9467 21.3867 19.56 20.88C20.1733 20.3733 20.64 19.6933 20.96 18.84L27.32 22.64C26.76 24.0267 25.8267 25.2133 24.52 26.2C23.2133 27.1867 21.7333 27.9467 20.08 28.48C18.4267 28.9867 16.7867 29.24 15.16 29.24C13.0533 29.24 11.12 28.8267 9.36 28C7.62667 27.1467 6.12 26.0267 4.84 24.64C3.58667 23.2267 2.61333 21.6533 1.92 19.92C1.22667 18.16 0.88 16.3733 0.88 14.56ZM42.4666 29.24C40.3066 29.24 38.3466 28.84 36.5866 28.04C34.8266 27.2133 33.3066 26.12 32.0266 24.76C30.7732 23.3733 29.7999 21.8267 29.1066 20.12C28.4399 18.3867 28.1066 16.6 28.1066 14.76C28.1066 12.8667 28.4666 11.0667 29.1866 9.36C29.9066 7.65333 30.9066 6.13333 32.1866 4.8C33.4932 3.44 35.0266 2.37333 36.7866 1.6C38.5732 0.826665 40.5199 0.439998 42.6266 0.439998C44.7866 0.439998 46.7466 0.853332 48.5066 1.68C50.2666 2.48 51.7732 3.57333 53.0266 4.96C54.2799 6.34667 55.2399 7.90667 55.9066 9.64C56.5999 11.3467 56.9466 13.1067 56.9466 14.92C56.9466 16.7867 56.5866 18.5733 55.8666 20.28C55.1732 21.9867 54.1732 23.52 52.8666 24.88C51.5866 26.2133 50.0666 27.28 48.3066 28.08C46.5466 28.8533 44.5999 29.24 42.4666 29.24ZM36.0266 14.84C36.0266 15.8 36.1599 16.7333 36.4266 17.64C36.6932 18.52 37.0932 19.32 37.6266 20.04C38.1599 20.7333 38.8266 21.2933 39.6266 21.72C40.4532 22.12 41.4266 22.32 42.5466 22.32C43.6666 22.32 44.6399 22.1067 45.4666 21.68C46.2932 21.2533 46.9599 20.68 47.4666 19.96C47.9999 19.2133 48.3866 18.4 48.6266 17.52C48.8932 16.6133 49.0266 15.6933 49.0266 14.76C49.0266 13.8 48.8932 12.88 48.6266 12C48.3599 11.12 47.9599 10.3333 47.4266 9.64C46.8932 8.92 46.2132 8.36 45.3866 7.96C44.5599 7.56 43.5999 7.36 42.5066 7.36C41.3866 7.36 40.4132 7.57333 39.5866 8C38.7866 8.42667 38.1199 9 37.5866 9.72C37.0532 10.4133 36.6532 11.2133 36.3866 12.12C36.1466 13 36.0266 13.9067 36.0266 14.84ZM60.2525 29V0.599998H68.0525V29H60.2525ZM80.7478 15.04V29H72.9478V0.599998H79.0278L90.4278 15.04V0.599998H98.2278V29H92.0278L80.7478 15.04ZM120.304 9.88C120.304 9.88 120.077 9.74667 119.624 9.48C119.171 9.21333 118.571 8.92 117.824 8.6C117.077 8.25333 116.264 7.94667 115.384 7.68C114.504 7.41333 113.637 7.28 112.784 7.28C112.117 7.28 111.571 7.38667 111.144 7.6C110.717 7.81333 110.504 8.17333 110.504 8.68C110.504 9.16 110.717 9.54667 111.144 9.84C111.571 10.1333 112.171 10.4 112.944 10.64C113.744 10.88 114.691 11.1733 115.784 11.52C117.544 12.0533 119.064 12.6667 120.344 13.36C121.624 14.0533 122.611 14.9467 123.304 16.04C123.997 17.1067 124.344 18.5333 124.344 20.32C124.344 22.0267 124.037 23.4667 123.424 24.64C122.811 25.7867 121.984 26.7067 120.944 27.4C119.904 28.0933 118.744 28.6 117.464 28.92C116.184 29.2133 114.877 29.36 113.544 29.36C112.184 29.36 110.757 29.2267 109.264 28.96C107.797 28.6667 106.371 28.28 104.984 27.8C103.597 27.2933 102.331 26.7067 101.184 26.04L104.544 19.2C104.544 19.2 104.811 19.36 105.344 19.68C105.877 20 106.584 20.36 107.464 20.76C108.344 21.16 109.317 21.52 110.384 21.84C111.477 22.16 112.571 22.32 113.664 22.32C114.517 22.32 115.104 22.2133 115.424 22C115.771 21.76 115.944 21.4533 115.944 21.08C115.944 20.52 115.651 20.0933 115.064 19.8C114.477 19.48 113.704 19.1867 112.744 18.92C111.811 18.6267 110.771 18.2933 109.624 17.92C107.971 17.36 106.611 16.7333 105.544 16.04C104.477 15.32 103.691 14.48 103.184 13.52C102.677 12.5333 102.424 11.3467 102.424 9.96C102.424 7.85333 102.917 6.09333 103.904 4.68C104.891 3.26667 106.184 2.2 107.784 1.48C109.411 0.733332 111.157 0.359999 113.024 0.359999C114.411 0.359999 115.744 0.533333 117.024 0.88C118.331 1.2 119.544 1.6 120.664 2.08C121.811 2.56 122.811 3.01333 123.664 3.44L120.304 9.88ZM136.126 0.599998H143.286L145.886 9.36L148.526 0.599998H155.686L150.886 14.16L152.926 19.96L159.046 0.599998H167.526L156.806 29H150.046L145.886 18.84L141.766 29H135.006L124.286 0.599998H132.726L138.886 19.96L140.846 14.16L136.126 0.599998ZM173.688 0.599998H182.408L191.448 29H183.528L181.808 23.44H174.248L172.568 29H164.607L173.688 0.599998ZM180.568 18.24L178.048 8.24L175.408 18.24H180.568ZM204.915 29.2C203.075 29.2 201.315 28.88 199.635 28.24C197.982 27.5733 196.515 26.6133 195.235 25.36C193.955 24.08 192.942 22.5467 192.195 20.76C191.475 18.9467 191.115 16.88 191.115 14.56C191.115 12.56 191.489 10.7067 192.235 9C192.982 7.29333 194.009 5.8 195.315 4.52C196.649 3.21333 198.195 2.2 199.955 1.48C201.715 0.759999 203.622 0.399999 205.675 0.399999C208.235 0.399999 210.555 0.959999 212.635 2.08C214.715 3.17333 216.262 4.68 217.275 6.6L211.475 11.04C210.915 9.92 210.075 9.02667 208.955 8.36C207.835 7.66666 206.649 7.32 205.395 7.32C204.462 7.32 203.609 7.50667 202.835 7.88C202.062 8.25333 201.382 8.77333 200.795 9.44C200.235 10.1067 199.795 10.9067 199.475 11.84C199.182 12.7467 199.035 13.7467 199.035 14.84C199.035 15.96 199.195 16.9733 199.515 17.88C199.835 18.7867 200.275 19.5733 200.835 20.24C201.422 20.88 202.115 21.3867 202.915 21.76C203.715 22.1067 204.609 22.28 205.595 22.28C206.849 22.28 208.049 21.9733 209.195 21.36C210.342 20.72 211.382 19.8267 212.315 18.68V26.28C210.182 28.2267 207.715 29.2 204.915 29.2ZM211.915 19.48H206.675V13.88H218.355V29H211.915V19.48Z" fill="#4629FA"/>
</svg>
