<svg viewBox="0 0 24 24" fill="none" xmlns="http://www.w3.org/2000/svg"><g id="SVGRepo_bgCarrier" stroke-width="0"></g><g id="SVGRepo_tracerCarrier" stroke-linecap="round" stroke-linejoin="round"></g><g id="SVGRepo_iconCarrier"> <path d="M16.5008 14.1502H16.5098M19 4.00098H6.2C5.0799 4.00098 4.51984 4.00098 4.09202 4.21896C3.71569 4.41071 3.40973 4.71667 3.21799 5.093C3 5.52082 3 6.08087 3 7.20098V16.801C3 17.9211 3 18.4811 3.21799 18.909C3.40973 19.2853 3.71569 19.5912 4.09202 19.783C4.51984 20.001 5.07989 20.001 6.2 20.001H17.8C18.9201 20.001 19.4802 20.001 19.908 19.783C20.2843 19.5912 20.5903 19.2853 20.782 18.909C21 18.4811 21 17.9211 21 16.801V11.201C21 10.0809 21 9.52082 20.782 9.093C20.5903 8.71667 20.2843 8.41071 19.908 8.21896C19.4802 8.00098 18.9201 8.00098 17.8 8.00098H7M16.9508 14.1502C16.9508 14.3987 16.7493 14.6002 16.5008 14.6002C16.2523 14.6002 16.0508 14.3987 16.0508 14.1502C16.0508 13.9017 16.2523 13.7002 16.5008 13.7002C16.7493 13.7002 16.9508 13.9017 16.9508 14.1502Z" stroke="#000000" stroke-width="2" stroke-linecap="round" stroke-linejoin="round"></path> </g></svg>