<svg width="83" height="83" viewBox="0 0 83 83" fill="none" xmlns="http://www.w3.org/2000/svg">
<path d="M55.4112 50.6838C55.822 52.4043 56.0287 54.1868 56.0312 56.0313C56.0312 62.1975 53.5817 68.1113 49.2215 72.4715C44.8613 76.8317 38.9475 79.2813 32.7812 79.2813V60.6813M55.4112 50.6838C62.812 45.2928 68.8326 38.2276 72.9811 30.0652C77.1296 21.9028 79.2885 12.8749 79.2812 3.71877C70.1258 3.71215 61.0986 5.87127 52.937 10.0198C44.7753 14.1683 37.7107 20.1885 32.3201 27.5888M55.4112 50.6838C48.6777 55.6127 40.9597 59.0235 32.7812 60.6813M32.7812 60.6813C32.3808 60.7639 31.9791 60.8414 31.5761 60.9138C28.0586 58.1285 24.8754 54.9453 22.0901 51.4278L22.3187 50.2188M32.3201 27.5888C28.9057 26.7812 25.3528 26.7569 21.9276 27.5176C18.5025 28.2784 15.2939 29.8045 12.5424 31.9815C9.79089 34.1586 7.56778 36.9301 6.03968 40.0885C4.51157 43.2469 3.71811 46.7101 3.71875 50.2188H22.3187M32.3201 27.5888C27.3917 34.3211 23.977 42.0417 22.3187 50.2188M13.6426 59.48C11.0926 61.3746 9.10997 63.9313 7.90978 66.8727C6.70958 69.8141 6.33763 73.028 6.83425 76.1658C7.71517 76.3053 8.61417 76.375 9.53125 76.375C12.2488 76.3756 14.9289 75.7411 17.3577 74.522C19.7865 73.3029 21.8967 71.533 23.52 69.3535M58.9375 29.875C58.9375 31.4166 58.3251 32.895 57.2351 33.9851C56.145 35.0751 54.6666 35.6875 53.125 35.6875C51.5834 35.6875 50.105 35.0751 49.0149 33.9851C47.9249 32.895 47.3125 31.4166 47.3125 29.875C47.3125 28.3334 47.9249 26.855 49.0149 25.765C50.105 24.6749 51.5834 24.0625 53.125 24.0625C54.6666 24.0625 56.145 24.6749 57.2351 25.765C58.3251 26.855 58.9375 28.3334 58.9375 29.875Z" stroke="#4629FA" stroke-width="6" stroke-linecap="round" stroke-linejoin="round"/>
</svg>
