<svg width="75" height="66" viewBox="0 0 75 66" fill="none" xmlns="http://www.w3.org/2000/svg">
<path d="M68.3125 12.5H9.5625C8.78343 12.5 8.03626 12.1905 7.48537 11.6396C6.93449 11.0887 6.625 10.3416 6.625 9.5625C6.625 8.78343 6.93449 8.03626 7.48537 7.48537C8.03626 6.93449 8.78343 6.625 9.5625 6.625H59.5C60.2791 6.625 61.0262 6.31551 61.5771 5.76463C62.128 5.21374 62.4375 4.46657 62.4375 3.6875C62.4375 2.90843 62.128 2.16126 61.5771 1.61037C61.0262 1.05949 60.2791 0.75 59.5 0.75H9.5625C7.22528 0.75 4.98379 1.67846 3.33112 3.33112C1.67846 4.98379 0.75 7.22528 0.75 9.5625V56.5625C0.75 58.8997 1.67846 61.1412 3.33112 62.7939C4.98379 64.4465 7.22528 65.375 9.5625 65.375H68.3125C69.8706 65.375 71.365 64.756 72.4668 63.6543C73.5685 62.5525 74.1875 61.0581 74.1875 59.5V18.375C74.1875 16.8169 73.5685 15.3225 72.4668 14.2207C71.365 13.119 69.8706 12.5 68.3125 12.5ZM68.3125 59.5H9.5625C8.78343 59.5 8.03626 59.1905 7.48537 58.6396C6.93449 58.0887 6.625 57.3416 6.625 56.5625V17.872C7.56814 18.2066 8.56175 18.3767 9.5625 18.375H68.3125V59.5ZM50.6875 37.4688C50.6875 36.5973 50.9459 35.7454 51.4301 35.0208C51.9143 34.2962 52.6024 33.7314 53.4076 33.3979C54.2127 33.0644 55.0986 32.9771 55.9534 33.1472C56.8081 33.3172 57.5932 33.7368 58.2094 34.3531C58.8257 34.9693 59.2453 35.7544 59.4153 36.6091C59.5854 37.4639 59.4981 38.3498 59.1646 39.1549C58.8311 39.9601 58.2663 40.6482 57.5417 41.1324C56.8171 41.6166 55.9652 41.875 55.0938 41.875C53.9251 41.875 52.8044 41.4108 51.9781 40.5844C51.1517 39.7581 50.6875 38.6374 50.6875 37.4688Z" fill="#4629FA"/>
</svg>
